 http://desibbrg.org/images/25793733514958777881.jpg 
http://desibbrg.org/images/57428778226646878680.jpg 
http://desibbrg.org/images/49490524910398766270.jpg 
http://desibbrg.org/images/10818900470682030176.jpg 
http://desibbrg.org/images/27217722102067462674.jpg 
http://desibbrg.org/images/36782218885097540243.jpg 
http://desibbrg.org/images/22130600610817919017.jpg

Info - 
Cast
Ashok Saraf
Avishkar Darvekar
Priya Berde
Pradnya Jadhav
Kuldeep Pawar
Vijay Chavan
Rohini Hattangadi
Ravindra Berde
Ashok Shinde

Directors
Sanjiv Kolate

Producers
Papu Behruz

Media Info - 
General
Complete name                  : Deva Shapath Khot Saangen Khar Sanganar Nahi YTBRip.avi
Format                         : AVI
Format/Info                    : Audio Video Interleave
File size                      : 687 MiB
Duration                       : 2h 11mn
Overall bit rate               : 732 Kbps
Writing application            : Lavf52.94.0

Video
ID                             : 0
Format                         : AVC
Format/Info                    : Advanced Video Codec
Format profile                 : Main@L3.0
Format settings, CABAC         : Yes
Format settings, ReFrames      : 2 frames
Codec ID                       : H264
Duration                       : 2h 11mn
Bit rate                       : 402 Kbps
Width                          : 640 pixels
Height                         : 480 pixels
Display aspect ratio           : 4:3
Frame rate mode                : Variable
Frame rate                     : 25.000 fps
Color space                    : YUV
Chroma subsampling             : 4:2:0
Bit depth                      : 8 bits
Scan type                      : Progressive
Bits/(Pixel*Frame)             : 0.052
Stream size                    : 375 MiB (55%)
Writing library                : x264 core 112 r1834 a51816a

Audio
ID                             : 1
Format                         : MPEG Audio
Format version                 : Version 1
Format profile                 : Layer 3
Mode                           : Joint stereo
Mode extension                 : MS Stereo
Codec ID                       : 55
Codec ID/Hint                  : MP3
Duration                       : 2h 11mn
Bit rate mode                  : Constant
Bit rate                       : 320 Kbps
Channel(s)                     : 2 channels
Sampling rate                  : 48.0 KHz
Compression mode               : Lossy
Stream size                    : 300 MiB (44%)
Alignment                      : Aligned on interleaves
Interleave, duration           : 24 ms (0.60 video frame)
Writing library                : LAME3.98.4

Ripper : Saket

Seeding 24x7... Extreme Seeding...


Enjoy!